<svg width="40" height="40" viewBox="0 0 40 40" fill="none" xmlns="http://www.w3.org/2000/svg">
<path fill-rule="evenodd" clip-rule="evenodd" d="M30.5 20C30.5 25.799 25.799 30.5 20 30.5C14.201 30.5 9.5 25.799 9.5 20C9.5 14.201 14.201 9.5 20 9.5C25.799 9.5 30.5 14.201 30.5 20ZM18.5263 15.9594C18.2808 16.3603 18.1916 16.9199 18.1916 17.3766H15.5C15.5 16.6617 15.6211 15.4859 16.2588 14.4444C16.9577 13.3029 18.172 12.5 19.9579 12.5C21.5589 12.5 22.7796 12.9829 23.5728 13.9182C24.3382 14.8207 24.5 15.9067 24.5 16.6736C24.5 18.8341 23.0595 20.1455 21.8423 20.7536C21.5724 20.8885 21.381 21.0989 21.2617 21.2697V22.25H18.5701V21.1798C18.5701 20.8171 18.6368 20.3478 18.903 19.8984C19.162 19.4612 19.7165 18.699 20.681 18.2171C21.3984 17.8587 21.8084 17.3249 21.8084 16.6736C21.8084 16.2691 21.7179 15.9711 21.5581 15.7827C21.426 15.627 21.0486 15.3117 19.9579 15.3117C19.0523 15.3117 18.7105 15.6584 18.5263 15.9594ZM19.954 27.5059C20.925 27.5059 21.7121 26.7187 21.7121 25.7477C21.7121 24.7767 20.925 23.9895 19.954 23.9895C18.9829 23.9895 18.1958 24.7767 18.1958 25.7477C18.1958 26.7187 18.9829 27.5059 19.954 27.5059Z" fill="white"/>
</svg>
