<svg width="143" height="33" viewBox="0 0 143 33" fill="none" xmlns="http://www.w3.org/2000/svg">
<path d="M119.224 8.00031H135V11.1207H123.412V14.8207H130.871V17.9411H123.412V21.6412H135V24.7739H119.224V8.00031ZM61.3529 11.4537V21.3205C61.3677 21.7733 61.2935 22.2245 61.135 22.646C60.9764 23.0675 60.7369 23.4503 60.4313 23.7707C60.1257 24.0911 59.7605 24.3422 59.3585 24.5084C58.9564 24.6746 58.5261 24.7524 58.0941 24.7369H47.7882C47.3519 24.7592 46.9159 24.6866 46.5076 24.5237C46.0994 24.3607 45.7277 24.1109 45.4161 23.79C45.1045 23.4691 44.8596 23.084 44.6968 22.659C44.5341 22.234 44.4571 21.7783 44.4706 21.3205V11.4537C44.4575 11.0003 44.5332 10.5488 44.6931 10.1273C44.8529 9.70578 45.0936 9.3231 45.4001 9.00291C45.7066 8.68272 46.0725 8.43184 46.4752 8.26575C46.8778 8.09967 47.3087 8.02192 47.7412 8.0373H58.0471C58.4829 8.01484 58.9184 8.08745 59.326 8.25053C59.7337 8.41362 60.1046 8.66363 60.4153 8.98475C60.7261 9.30587 60.9698 9.69111 61.1312 10.1161C61.2926 10.5411 61.3681 10.9965 61.3529 11.4537ZM58.7647 16.3871L55.8471 11.1207H49.9647L47.1176 16.3871L50.0235 21.6535H55.9059L58.7647 16.3871ZM114.447 18.6195L117.847 24.7739H113.329L109.941 18.6195H105.047V24.7739H100.859V8.00031H114.141C114.577 7.98276 115.012 8.06028 115.418 8.22795C115.824 8.39562 116.192 8.64979 116.5 8.97439C116.807 9.29898 117.047 9.68694 117.204 10.1137C117.361 10.5405 117.432 10.9968 117.412 11.4537V15.2524C117.431 16.1074 117.133 16.9368 116.58 17.5652C116.026 18.1936 115.262 18.5717 114.447 18.6195ZM113.271 12.1567C113.268 11.8829 113.162 11.6213 112.978 11.4277C112.793 11.2341 112.544 11.1239 112.282 11.1207H105.106V15.5114H112.282C112.544 15.5082 112.793 15.398 112.978 15.2044C113.162 15.0108 113.268 14.7492 113.271 14.4754V12.1567ZM98.9294 11.4537V21.3205C98.9425 21.7739 98.8668 22.2253 98.7069 22.6469C98.5471 23.0684 98.3064 23.4511 97.9999 23.7713C97.6934 24.0915 97.3275 24.3424 96.9248 24.5084C96.5222 24.6745 96.0913 24.7523 95.6588 24.7369H85.3529C84.923 24.7489 84.4952 24.6686 84.0959 24.5008C83.6966 24.3331 83.3343 24.0815 83.0312 23.7615C82.7282 23.4414 82.4908 23.0598 82.3337 22.64C82.1766 22.2202 82.1031 21.7712 82.1177 21.3205V11.4537C82.1029 11.0009 82.1771 10.5497 82.3356 10.1282C82.4942 9.7067 82.7337 9.32388 83.0393 9.0035C83.3449 8.68312 83.7101 8.43203 84.1121 8.26582C84.5142 8.09961 84.9445 8.02182 85.3765 8.0373H95.6824C96.1129 8.02535 96.5412 8.10564 96.9411 8.27326C97.341 8.44088 97.704 8.6923 98.008 9.01212C98.3119 9.33195 98.5505 9.71345 98.7089 10.1333C98.8673 10.5531 98.9424 11.0024 98.9294 11.4537ZM96.3294 16.3871L93.4235 11.1207H87.5412L84.6824 16.3871L87.6 21.6535H93.4824L96.3294 16.3871ZM76.9412 8.00031H66.6353C66.1998 7.98463 65.7658 8.06342 65.3607 8.23174C64.9556 8.40007 64.5879 8.6543 64.2809 8.97851C63.9738 9.30272 63.734 9.68991 63.5763 10.1158C63.4187 10.5418 63.3466 10.9972 63.3647 11.4537V21.3205C63.3516 21.7739 63.4273 22.2253 63.5872 22.6469C63.7471 23.0684 63.9877 23.4511 64.2942 23.7713C64.6007 24.0915 64.9666 24.3424 65.3693 24.5084C65.772 24.6745 66.2028 24.7523 66.6353 24.7369H76.9412C77.3731 24.7524 77.8035 24.6746 78.2055 24.5084C78.6076 24.3422 78.9728 24.0911 79.2784 23.7707C79.584 23.4503 79.8235 23.0675 79.982 22.646C80.1406 22.2245 80.2148 21.7733 80.2 21.3205V18.6318H76.3647L74.6941 21.6535H68.8118L65.9647 16.3871L68.8706 11.1207H74.7529L76.4235 14.1424H80.2588V11.4537C80.2792 10.9924 80.2071 10.5318 80.0473 10.1015C79.8874 9.67119 79.6433 9.28078 79.3308 8.95543C79.0182 8.63007 78.6441 8.37698 78.2325 8.21247C77.8209 8.04796 77.381 7.97569 76.9412 8.00031ZM39.7647 18.6195L43.1647 24.7739H38.6824L35.2824 18.6195H30.3529V24.7739H26.2118V8.00031H39.4824C39.9179 7.98463 40.3518 8.06342 40.757 8.23174C41.1621 8.40007 41.5297 8.6543 41.8368 8.97851C42.1438 9.30272 42.3837 9.68991 42.5413 10.1158C42.699 10.5418 42.771 10.9972 42.7529 11.4537V15.2524C42.7723 16.1114 42.4707 16.9443 41.9124 17.5734C41.3541 18.2025 40.5834 18.5779 39.7647 18.6195ZM38.5882 12.1567C38.5851 11.8808 38.4784 11.6173 38.2912 11.4234C38.104 11.2294 37.8514 11.1207 37.5882 11.1207H30.3529V15.5114H37.5176C37.7808 15.5114 38.0334 15.4027 38.2206 15.2087C38.4078 15.0148 38.5146 14.7513 38.5176 14.4754L38.5882 12.1567ZM24.5412 11.4537V15.2524C24.5559 15.7052 24.4817 16.1564 24.3232 16.5779C24.1647 16.9994 23.9251 17.3822 23.6195 17.7026C23.3139 18.023 22.9488 18.2741 22.5467 18.4403C22.1447 18.6065 21.7143 18.6843 21.2824 18.6688H12.1882V24.7739H8V8.00031H21.2824C21.7174 7.98451 22.1508 8.06332 22.5554 8.23177C22.9599 8.40022 23.3268 8.65466 23.6329 8.97907C23.9391 9.30348 24.1778 9.69083 24.3341 10.1167C24.4904 10.5426 24.5609 10.9978 24.5412 11.4537ZM20.3529 12.1937C20.3498 11.9178 20.2431 11.6543 20.0559 11.4604C19.8687 11.2664 19.6161 11.1577 19.3529 11.1577H12.1882V15.5484H19.3529C19.6161 15.5484 19.8687 15.4397 20.0559 15.2457C20.2431 15.0518 20.3498 14.7883 20.3529 14.5124V12.1937Z" fill="white"/>
<path d="M70.2469 13.624L68.7175 16.3867L70.2469 19.1494H73.3058L74.8352 16.3867L73.3058 13.624H70.2469Z" fill="#FF5100"/>
</svg>
